<?xml version="1.0" encoding="UTF-8" standalone="no"?>
<!-- Generated by graphviz version 2.49.1 (0)
 -->

<!-- Pages: 1 -->

<svg
   width="704.69pt"
   height="414pt"
   viewBox="0 0 704.38014 414"
   version="1.1"
   id="svg187"
   sodipodi:docname="full-operations.svg"
   xmlns:inkscape="http://www.inkscape.org/namespaces/inkscape"
   xmlns:sodipodi="http://sodipodi.sourceforge.net/DTD/sodipodi-0.dtd"
   xmlns="http://www.w3.org/2000/svg"
   xmlns:svg="http://www.w3.org/2000/svg">
  <defs
     id="defs191" />
  <sodipodi:namedview
     id="namedview189"
     pagecolor="#ffffff"
     bordercolor="#666666"
     borderopacity="1.0"
     inkscape:pageshadow="2"
     inkscape:pageopacity="0.0"
     inkscape:pagecheckerboard="0"
     inkscape:document-units="pt" />
  <g
     id="graph0"
     class="graph"
     transform="translate(3.845,410)">
    <polygon
       fill="#ffffff"
       stroke="transparent"
       points="700.69,-410 700.69,4 -4,4 -4,-410 "
       id="polygon2" />
    <!-- spo1 -->
    <g
       id="node1"
       class="node">
      <title
         id="title4">spo1</title>
      <ellipse
         fill="none"
         stroke="#ff0000"
         cx="424.19"
         cy="-388"
         rx="32.490002"
         ry="18"
         id="ellipse6" />
      <text
         text-anchor="middle"
         x="424.19"
         y="-384.29999"
         font-family="Times, serif"
         font-size="14px"
         id="text8">Split</text>
    </g>
    <!-- dop3 -->
    <g
       id="node2"
       class="node">
      <title
         id="title11">dop3</title>
      <polygon
         fill="none"
         stroke="#0000ff"
         points="340.4,-334 305.6,-316 340.4,-298 409.99,-298 444.79,-316 409.99,-334 "
         id="polygon13" />
      <text
         text-anchor="middle"
         x="375.19"
         y="-312.29999"
         font-family="Times, serif"
         font-size="14px"
         id="text15">Dispersion</text>
    </g>
    <!-- dop3&#45;&gt;spo1 -->
    <g
       id="edge14"
       class="edge">
      <title
         id="title18">dop3-&gt;spo1</title>
      <path
         fill="none"
         stroke="#000000"
         d="m 387.31,-334.3 c 5.92,-8.47 13.16,-18.81 19.66,-28.09"
         id="path20" />
      <polygon
         fill="#000000"
         stroke="#000000"
         points="410.03,-360.66 404.29,-364.67 412.89,-370.86 "
         id="polygon22" />
    </g>
    <!-- dop4 -->
    <g
       id="node3"
       class="node">
      <title
         id="title25">dop4</title>
      <polygon
         fill="none"
         stroke="#0000ff"
         points="470.4,-190 435.6,-172 470.4,-154 539.99,-154 574.79,-172 539.99,-190 "
         id="polygon27" />
      <text
         text-anchor="middle"
         x="505.19"
         y="-168.3"
         font-family="Times, serif"
         font-size="14px"
         id="text29">Dispersion</text>
    </g>
    <!-- dop4&#45;&gt;spo1 -->
    <g
       id="edge13"
       class="edge">
      <title
         id="title32">dop4-&gt;spo1</title>
      <path
         fill="none"
         stroke="#000000"
         d="m 500.97,-190.35 c -7.57,-29.98 -24.76,-93.12 -46.78,-143.65 -4.09,-9.4 -9.39,-19.28 -14.38,-27.93"
         id="path34" />
      <polygon
         fill="#000000"
         stroke="#000000"
         points="442.68,-363.94 436.66,-360.36 434.57,-370.75 "
         id="polygon36" />
    </g>
    <!-- expm4 -->
    <g
       id="node4"
       class="node">
      <title
         id="title39">expm4</title>
      <polygon
         fill="none"
         stroke="#008000"
         points="593.69,-77 696.69,-77 696.69,-113 593.69,-113 "
         id="polygon41" />
      <text
         text-anchor="middle"
         x="645.19"
         y="-91.300003"
         font-family="Times, serif"
         font-size="14px"
         id="text43">Expm t=2.0</text>
    </g>
    <!-- expm4&#45;&gt;dop4 -->
    <g
       id="edge11"
       class="edge">
      <title
         id="title46">expm4-&gt;dop4</title>
      <path
         fill="none"
         stroke="#000000"
         d="m 613.43,-113.02 c -19.91,-10.66 -45.77,-24.52 -67.22,-36.01"
         id="path48" />
      <polygon
         fill="#000000"
         stroke="#000000"
         points="547.79,-152.15 544.48,-145.98 537.32,-153.79 "
         id="polygon50" />
    </g>
    <!-- spo2 -->
    <g
       id="node5"
       class="node">
      <title
         id="title53">spo2</title>
      <ellipse
         fill="none"
         stroke="#ff0000"
         cx="277.19"
         cy="-244"
         rx="32.490002"
         ry="18"
         id="ellipse55" />
      <text
         text-anchor="middle"
         x="277.19"
         y="-240.3"
         font-family="Times, serif"
         font-size="14px"
         id="text57">Split</text>
    </g>
    <!-- spo2&#45;&gt;dop3 -->
    <g
       id="edge9"
       class="edge">
      <title
         id="title60">spo2-&gt;dop3</title>
      <path
         fill="none"
         stroke="#000000"
         d="m 296.56,-258.83 c 13.27,-9.48 31.19,-22.28 46.57,-33.27"
         id="path62" />
      <polygon
         fill="#000000"
         stroke="#000000"
         points="345.26,-289.32 341.2,-295.02 351.37,-297.98 "
         id="polygon64" />
    </g>
    <!-- dop1 -->
    <g
       id="node6"
       class="node">
      <title
         id="title67">dop1</title>
      <polygon
         fill="none"
         stroke="#0000ff"
         points="242.4,-190 207.6,-172 242.4,-154 311.99,-154 346.79,-172 311.99,-190 "
         id="polygon69" />
      <text
         text-anchor="middle"
         x="277.19"
         y="-168.3"
         font-family="Times, serif"
         font-size="14px"
         id="text71">Dispersion</text>
    </g>
    <!-- dop1&#45;&gt;spo2 -->
    <g
       id="edge1"
       class="edge">
      <title
         id="title74">dop1-&gt;spo2</title>
      <path
         fill="none"
         stroke="#000000"
         d="m 277.19,-190.3 c 0,-7.72 0,-16.99 0,-25.59"
         id="path76" />
      <polygon
         fill="#000000"
         stroke="#000000"
         points="280.69,-215.9 273.69,-215.9 277.19,-225.9 "
         id="polygon78" />
    </g>
    <!-- dop2 -->
    <g
       id="node7"
       class="node">
      <title
         id="title81">dop2</title>
      <polygon
         fill="none"
         stroke="#0000ff"
         points="84.4,-190 49.6,-172 84.4,-154 153.99,-154 188.79,-172 153.99,-190 "
         id="polygon83" />
      <text
         text-anchor="middle"
         x="119.19"
         y="-168.3"
         font-family="Times, serif"
         font-size="14px"
         id="text85">Dispersion</text>
    </g>
    <!-- dop2&#45;&gt;spo2 -->
    <g
       id="edge2"
       class="edge">
      <title
         id="title88">dop2-&gt;spo2</title>
      <path
         fill="none"
         stroke="#000000"
         d="m 155.84,-189.24 c 26.35,-11.67 61.63,-27.3 87.36,-38.7"
         id="path90" />
      <polygon
         fill="#000000"
         stroke="#000000"
         points="244.82,-224.83 241.99,-231.23 252.55,-232.08 "
         id="polygon92" />
    </g>
    <!-- eop1 -->
    <g
       id="node8"
       class="node">
      <title
         id="title95">eop1</title>
      <polygon
         fill="none"
         stroke="#008000"
         points="313.69,-77 416.69,-77 416.69,-113 313.69,-113 "
         id="polygon97" />
      <text
         text-anchor="middle"
         x="365.19"
         y="-91.300003"
         font-family="Times, serif"
         font-size="14px"
         id="text99">Expm t=1.0</text>
    </g>
    <!-- eop1&#45;&gt;dop3 -->
    <g
       id="edge7"
       class="edge">
      <title
         id="title102">eop1-&gt;dop3</title>
      <path
         fill="none"
         stroke="#000000"
         d="m 365.98,-113.18 c 1.73,-37.9 5.89,-128.92 7.97,-174.64"
         id="path104" />
      <polygon
         fill="#000000"
         stroke="#000000"
         points="377.45,-287.75 370.46,-288.07 374.41,-297.9 "
         id="polygon106" />
    </g>
    <!-- eop1&#45;&gt;dop1 -->
    <g
       id="edge5"
       class="edge">
      <title
         id="title109">eop1-&gt;dop1</title>
      <path
         fill="none"
         stroke="#000000"
         d="m 345.23,-113.02 c -11.85,-10.09 -27.04,-23.04 -40.06,-34.14"
         id="path111" />
      <polygon
         fill="#000000"
         stroke="#000000"
         points="307.27,-149.97 302.73,-144.64 297.39,-153.79 "
         id="polygon113" />
    </g>
    <!-- eop1&#45;&gt;dop2 -->
    <g
       id="edge6"
       class="edge">
      <title
         id="title116">eop1-&gt;dop2</title>
      <path
         fill="none"
         stroke="#000000"
         d="m 319.78,-113.05 c -4.91,-1.72 -9.84,-3.41 -14.59,-4.95 -43.82,-14.26 -94.11,-28.46 -131.34,-38.57"
         id="path118" />
      <polygon
         fill="#000000"
         stroke="#000000"
         points="174.76,-159.95 172.94,-153.19 164.2,-159.18 "
         id="polygon120" />
    </g>
    <!-- mro -->
    <g
       id="node9"
       class="node">
      <title
         id="title123">mro</title>
      <polygon
         fill="none"
         stroke="#000000"
         points="432.19,0 578.19,0 578.19,-36 432.19,-36 "
         id="polygon125" />
      <text
         text-anchor="middle"
         x="505.19"
         y="-14.3"
         font-family="Times, serif"
         font-size="14px"
         id="text127">Make Rate Matrix</text>
    </g>
    <!-- mro&#45;&gt;expm4 -->
    <g
       id="edge12"
       class="edge">
      <title
         id="title130">mro-&gt;expm4</title>
      <path
         fill="none"
         stroke="#000000"
         d="m 536.96,-36.02 c 19.91,-10.66 45.77,-24.52 67.21,-36.01"
         id="path132" />
      <polygon
         fill="#000000"
         stroke="#000000"
         points="605.9,-68.98 602.6,-75.15 613.07,-76.79 "
         id="polygon134" />
    </g>
    <!-- mro&#45;&gt;eop1 -->
    <g
       id="edge8"
       class="edge">
      <title
         id="title137">mro-&gt;eop1</title>
      <path
         fill="none"
         stroke="#000000"
         d="M 473.43,-36.02 C 453.52,-46.68 427.66,-60.54 406.21,-72.03"
         id="path139" />
      <polygon
         fill="#000000"
         stroke="#000000"
         points="407.79,-75.15 404.48,-68.98 397.32,-76.79 "
         id="polygon141" />
    </g>
    <!-- tipa -->
    <g
       id="node10"
       class="node">
      <title
         id="title144">tipa</title>
      <polygon
         fill="none"
         stroke="#000000"
         points="295.98,-83.5 227.19,-118 158.41,-83.5 "
         id="polygon146" />
      <text
         text-anchor="middle"
         x="227.19"
         y="-91.300003"
         font-family="Times, serif"
         font-size="14px"
         id="text148">Tip A</text>
    </g>
    <!-- tipa&#45;&gt;dop1 -->
    <g
       id="edge3"
       class="edge">
      <title
         id="title151">tipa-&gt;dop1</title>
      <path
         fill="none"
         stroke="#000000"
         d="m 238.29,-112.64 c 6.38,-9.58 14.54,-21.82 21.73,-32.61"
         id="path153" />
      <polygon
         fill="#000000"
         stroke="#000000"
         points="263.15,-143.62 257.32,-147.5 265.78,-153.88 "
         id="polygon155" />
    </g>
    <!-- tipb -->
    <g
       id="node11"
       class="node">
      <title
         id="title158">tipb</title>
      <polygon
         fill="none"
         stroke="#000000"
         points="140.58,-83.5 70.19,-118 -0.19,-83.5 "
         id="polygon160" />
      <text
         text-anchor="middle"
         x="70.190002"
         y="-91.300003"
         font-family="Times, serif"
         font-size="14px"
         id="text162">Tip B</text>
    </g>
    <!-- tipb&#45;&gt;dop2 -->
    <g
       id="edge4"
       class="edge">
      <title
         id="title165">tipb-&gt;dop2</title>
      <path
         fill="none"
         stroke="#000000"
         d="m 81.31,-113.02 c 6.22,-9.52 14.1,-21.58 21.07,-32.24"
         id="path167" />
      <polygon
         fill="#000000"
         stroke="#000000"
         points="105.41,-143.5 99.55,-147.33 107.95,-153.79 "
         id="polygon169" />
    </g>
    <!-- tipc -->
    <g
       id="node12"
       class="node">
      <title
         id="title172">tipc</title>
      <polygon
         fill="none"
         stroke="#000000"
         points="575.58,-83.5 505.19,-118 434.81,-83.5 "
         id="polygon174" />
      <text
         text-anchor="middle"
         x="505.19"
         y="-91.300003"
         font-family="Times, serif"
         font-size="14px"
         id="text176">Tip C</text>
    </g>
    <!-- tipc&#45;&gt;dop4 -->
    <g
       id="edge10"
       class="edge">
      <title
         id="title179">tipc-&gt;dop4</title>
      <path
         fill="none"
         stroke="#000000"
         d="m 505.19,-118.1 c 0,-8.02 0,-17.18 0,-25.59"
         id="path181" />
      <polygon
         fill="#000000"
         stroke="#000000"
         points="508.69,-143.82 501.69,-143.82 505.19,-153.82 "
         id="polygon183" />
    </g>
  </g>
</svg>
